<svg width="520" height="520" viewBox="0 0 520 520" fill="none" xmlns="http://www.w3.org/2000/svg">
<g opacity="0.59">
<path d="M229.237 29.7802L29.6772 230.442C13.3205 246.889 13.3937 273.482 29.8408 289.839L230.502 489.398C246.95 505.755 273.542 505.681 289.899 489.234L489.458 288.573C505.815 272.126 505.742 245.533 489.295 229.176L288.633 29.6166C272.186 13.2599 245.593 13.3331 229.237 29.7802Z" fill="#329749"/>
<path d="M230.3 30.8378L30.7408 231.499C14.9682 247.359 15.0388 273.002 30.8986 288.775L231.56 488.334C247.42 504.107 273.063 504.036 288.836 488.176L488.395 287.515C504.168 271.655 504.097 246.012 488.237 230.239L287.576 30.6801C271.716 14.9075 246.073 14.9781 230.3 30.8378Z" fill="#329749" stroke="url(#paint0_linear_22_1048)" stroke-opacity="0.77" stroke-width="3" stroke-linecap="round"/>
</g>
<g filter="url(#filter0_di_22_1048)">
<path d="M403.771 63.8737C429.818 63.8737 450.934 86.7814 450.934 115.04V404.707C450.934 432.965 429.818 455.874 403.771 455.874H107.098C81.0502 455.874 59.9337 432.965 59.9337 404.707V115.04C59.9338 86.7814 81.0502 63.8737 107.098 63.8737H403.771ZM328.002 90.8415C327.737 90.8415 326.656 92.4706 325.601 94.4616C322.962 99.4422 317.563 105.27 312.232 108.894C307.865 111.862 290.077 120.663 288.443 120.665C287.114 120.665 275.531 128.451 271.68 131.934C268.05 135.218 262.294 144.026 260.267 149.402C258.756 153.408 258.531 155.48 258.579 165.008C258.61 171.052 258.991 176.849 259.429 177.892C260.18 179.685 260.428 179.443 264.029 173.383C266.123 169.86 270.123 164.469 272.918 161.403C277.438 156.447 289.48 146.71 299.795 139.674C301.794 138.31 305.411 135.382 307.832 133.168C310.252 130.953 312.233 129.441 312.233 129.808C312.232 131.359 304.354 140.424 297.011 147.324C269.668 173.015 261.453 183.974 251.795 207.643C247.188 218.935 240.883 242.917 240.883 249.15C240.883 251.016 240.507 250.668 238.076 246.556C234.754 240.935 225.142 230.712 218.537 225.776C215.95 223.842 210.481 220.183 206.384 217.642C198.547 212.783 195.2 210.193 198.151 211.271C199.013 211.586 201.885 212.521 204.532 213.348C215.391 216.745 223.39 221.354 231.841 229.086L236.371 233.23L235.807 228.943C234.433 218.511 228.946 209.414 220.658 203.829C212.38 198.25 206.603 196.621 195.015 196.595C186.032 196.577 171.872 198.863 170.107 200.619C169.776 200.948 171.054 202.331 172.948 203.692C176.467 206.221 180.44 211.695 187.255 223.402C192.932 233.154 197.487 237.79 205.092 241.56C210.298 244.141 212.759 244.859 218.39 245.439C222.189 245.831 225.779 245.967 226.365 245.742C229.81 244.42 234.894 253.219 237.736 265.425C239.964 274.986 239.799 280.591 237.061 288.341C234.413 295.837 231.362 300.546 226.215 305.08C219.807 310.726 214.074 313.325 200.3 316.827C184.049 320.959 177.527 323.181 172.121 326.431C168.22 328.777 162.476 334.336 162.476 335.766C162.476 337.374 165.424 336.952 170.51 334.618C178.475 330.962 185.087 328.894 194.628 327.075C206.306 324.848 206.293 324.843 201.5 329.662C192.207 339.006 189.247 352.27 193.246 366.657L195.007 372.989L195.467 365.533C196.292 352.17 200.394 342.342 208.025 335.45C212.437 331.464 214.892 329.864 226.9 323.163C233.632 319.406 240.348 313.862 242.551 310.247C245.074 306.106 244.257 310.14 241.323 316.306C237.808 323.697 233.69 327.574 224.026 332.59C219.713 334.827 215.938 337.055 215.637 337.54C215.335 338.024 215.599 338.986 216.225 339.677C216.85 340.369 217.361 341.305 217.361 341.758C217.361 342.21 217.844 342.982 218.434 343.472C219.334 344.22 219.238 345.093 217.846 348.866C215.577 355.014 215.536 355.056 211.301 355.632C205.513 356.419 205.302 356.708 205.454 363.669C205.612 370.911 206.355 371.96 211.426 372.102C214.922 372.2 215.102 372.326 216.666 375.736C217.557 377.678 218.643 380.018 219.079 380.935C219.924 382.711 219.236 384.623 216.46 388.203C215.662 389.233 215.009 390.529 215.009 391.083C215.01 392.781 222.893 400.85 224.551 400.85C225.4 400.85 227.692 399.75 229.643 398.407L233.191 395.964L238.153 398.385C243.245 400.871 243.544 401.277 244.408 406.852C244.858 409.753 245.179 410.145 247.353 410.465C248.694 410.662 252.198 410.651 255.137 410.44L260.481 410.058L261.314 406.828C261.772 405.051 262.331 402.961 262.557 402.185C262.973 400.752 270.597 396.906 272.931 396.951C273.632 396.964 275.617 397.845 277.342 398.909C279.067 399.972 280.935 400.844 281.492 400.846C282.862 400.851 290.108 393.995 290.696 392.137C291.175 390.625 288.197 384.369 286.998 384.369C285.977 384.368 286.239 382.894 288.123 378.046L289.887 373.506L294.984 372.006C298.154 371.073 299.995 370.129 299.857 369.508C299.454 367.706 300.553 365.533 301.868 365.533C302.578 365.533 303.877 366.396 304.755 367.451C306.407 369.434 307.202 369.708 310.861 369.55C316.045 369.326 318.165 361.981 314.194 358.006C312.508 356.318 312.234 355.335 312.234 350.978C312.234 345.953 312.251 345.912 314.429 345.912C316.471 345.912 316.689 345.597 317.557 341.389L318.491 336.865L327.798 333.165L331.43 335.618C335.668 338.481 336.215 338.333 341.15 332.974L344.486 329.351L342.115 325.148C339.755 320.96 339.749 320.93 341.029 317.535C342.801 312.836 343.141 312.495 347.202 311.357C352.176 309.963 353.005 308.887 353.005 303.816C353.005 299.007 352.011 296.467 350.128 296.467C349.438 296.467 347.599 296.083 346.039 295.613C343.651 294.893 342.911 294.091 341.349 290.526L339.494 286.293L344.506 278.476L340.261 272.906L344.013 268.794C348.924 263.411 349.827 262.719 351.942 262.719C357.269 262.719 360.248 258.44 358.369 253.484C357.526 251.261 356.606 250.341 354.55 249.67C351.095 248.54 349.138 249.273 346.917 252.531C345.661 254.375 345.261 255.843 345.546 257.554C345.893 259.637 345.369 260.614 341.775 264.586C339.478 267.123 336.919 269.246 336.089 269.302C335.258 269.36 332.943 270.384 330.944 271.579L327.308 273.753L322.711 271.965C320.183 270.981 318.098 269.823 318.075 269.391C318.053 268.96 317.749 266.928 317.398 264.878L316.76 261.15H303.762L302.902 263.622C302.428 264.981 302.04 266.943 302.04 267.981C302.04 269.516 301.23 270.229 297.705 271.789C295.322 272.844 292.98 273.707 292.5 273.708C292.021 273.708 289.866 272.621 287.711 271.294L283.793 268.882L280.312 272.275C275.223 277.236 275.138 277.561 277.675 282.363C279.836 286.453 279.862 286.646 278.716 290.138C277.311 294.417 276.226 295.402 272.157 296.091C267.769 296.833 267.15 297.79 267.15 303.831C267.15 308.658 267.319 309.213 269.11 310.201C270.188 310.797 272.015 311.482 273.171 311.724C275.881 312.294 277.699 314.147 278.248 316.896C278.593 318.624 279.237 319.187 281.306 319.576C284.594 320.194 289.604 324.344 294.005 330.096C295.872 332.536 298.279 335.26 299.353 336.151C300.522 337.12 301.69 339.312 302.262 341.613C303.027 344.692 303.606 345.545 305.177 345.912C306.948 346.325 307.16 346.801 307.372 350.849C307.592 355.029 307.41 355.565 304.678 358.837C301.562 362.568 299.688 362.565 299.688 358.827C299.688 356.99 297.296 355.75 292.646 355.177C291.162 354.995 290.193 353.91 288.578 350.621C287.413 348.247 286.436 345.876 286.408 345.351C286.382 344.826 287.417 342.726 288.711 340.684C290.005 338.642 291.063 336.704 291.064 336.376C291.064 336.048 288.954 333.607 286.374 330.952L281.685 326.125L272.926 331.072L268.096 329.13C265.44 328.062 263.202 326.897 263.12 326.543C263.04 326.189 262.74 324.848 262.454 323.564L261.935 321.228L260.444 323.172C259.623 324.24 258.943 325.537 258.934 326.054C258.924 326.572 257.178 329.086 255.053 331.641L251.19 336.289L254.857 336.757C264.23 337.954 270.235 341.532 275.126 348.837C278.992 354.609 280.495 360.568 279.697 366.96C279.001 372.533 278.264 374.43 274.865 379.385C269.528 387.166 262.369 390.761 252.3 390.715C244.517 390.678 239.214 388.332 233.33 382.32C228.503 377.387 225.986 370.959 225.986 363.56C225.986 353.21 229.252 347.547 241.652 336.402C250.527 328.424 254.877 322.224 257.704 313.519C260.086 306.187 260.449 299.736 259.355 284.164C258.566 272.941 259.501 265.494 262.86 256.263C265.34 249.448 273.173 236.82 274.921 236.82C275.55 236.82 277.058 237.203 278.272 237.671C282.808 239.418 289.379 240.008 294.781 239.151C303.986 237.69 307.285 235.611 319.935 223.3C327.542 215.895 332.982 211.28 335.986 209.682L340.528 207.266L332.85 203.665C320.853 198.04 317.308 197.199 305.569 197.192C295.423 197.186 295.347 197.2 289.286 200.096C285.731 201.796 281.45 204.661 278.995 206.985C274.697 211.054 270.141 218.51 269.083 223.206L268.49 225.835L271.348 223.574C279.093 217.449 292.131 212.929 304.393 212.118L311.057 211.676L301.256 215.091C288.131 219.664 285.109 221.074 277.324 226.258C270.328 230.919 262.757 238.493 258.494 245.095C255.736 249.369 251.076 261.68 251.075 264.698C251.075 265.717 250.722 266.77 250.291 267.037C249.019 267.82 249.364 255.651 250.749 250.894C251.432 248.549 253.391 244.01 255.101 240.807C257.637 236.06 258.506 233.233 259.807 225.503C261.333 216.433 265.901 200.704 269.132 193.393L270.654 189.947L278.077 189.401C303.405 187.54 322.114 173.035 329.034 149.893C333.239 135.829 333.745 114.726 330.255 98.8864C329.281 94.4639 328.268 90.8453 328.002 90.8415ZM300.864 284.211C305.477 282.028 310.888 281.792 316.701 283.52C322.837 285.344 322.979 286.039 318.273 291.237C314.308 295.617 314.12 295.721 311.553 294.956C306.749 293.525 301.829 297.057 301.247 302.354C300.838 306.087 301.44 307.635 304.426 310.537L307.597 313.616L307.137 325.391L303.003 323.931C294.086 320.783 289.395 314.499 288.844 304.965C288.588 300.557 288.872 299.003 290.63 295.155C293.269 289.379 295.909 286.556 300.864 284.211ZM325.954 290.529C326.385 290.621 327.567 292.187 328.58 294.008C332.794 301.586 331.296 312.744 325.254 318.793C322.231 321.819 313.47 326.22 312.467 325.217C312.278 325.028 312.131 322.368 312.141 319.307C312.158 313.812 312.2 313.704 315.407 310.649C318.598 307.61 318.651 307.473 318.388 302.885C318.124 298.31 318.19 298.135 321.645 294.288C323.583 292.128 325.523 290.437 325.954 290.529Z" fill="#CAE5D0" fill-opacity="0.68"/>
</g>
<defs>
<filter id="filter0_di_22_1048" x="59.0337" y="63.8737" width="400.8" height="402.9" filterUnits="userSpaceOnUse" color-interpolation-filters="sRGB">
<feFlood flood-opacity="0" result="BackgroundImageFix"/>
<feColorMatrix in="SourceAlpha" type="matrix" values="0 0 0 0 0 0 0 0 0 0 0 0 0 0 0 0 0 0 127 0" result="hardAlpha"/>
<feOffset dx="4" dy="6"/>
<feGaussianBlur stdDeviation="2.45"/>
<feComposite in2="hardAlpha" operator="out"/>
<feColorMatrix type="matrix" values="0 0 0 0 0 0 0 0 0 0 0 0 0 0 0 0 0 0 0.28 0"/>
<feBlend mode="normal" in2="BackgroundImageFix" result="effect1_dropShadow_22_1048"/>
<feBlend mode="normal" in="SourceGraphic" in2="effect1_dropShadow_22_1048" result="shape"/>
<feColorMatrix in="SourceAlpha" type="matrix" values="0 0 0 0 0 0 0 0 0 0 0 0 0 0 0 0 0 0 127 0" result="hardAlpha"/>
<feOffset/>
<feGaussianBlur stdDeviation="3.75"/>
<feComposite in2="hardAlpha" operator="arithmetic" k2="-1" k3="1"/>
<feColorMatrix type="matrix" values="0 0 0 0 1 0 0 0 0 1 0 0 0 0 1 0 0 0 0.4 0"/>
<feBlend mode="normal" in2="shape" result="effect2_innerShadow_22_1048"/>
</filter>
<linearGradient id="paint0_linear_22_1048" x1="0.694931" y1="263.346" x2="260.202" y2="262.632" gradientUnits="userSpaceOnUse">
<stop offset="0.370192" stop-color="white" stop-opacity="0.5"/>
<stop offset="1" stop-color="white" stop-opacity="0.1"/>
</linearGradient>
</defs>
</svg>
