<svg width="1024" height="1024" viewBox="80 130 700 670" fill="none" xmlns="http://www.w3.org/2000/svg">
<g filter="url(#filter0_d_1_2)">
<path fill-rule="evenodd" clip-rule="evenodd" d="M368.935 363.246C302.576 420.512 254.684 475.993 226.935 558.746C223.244 572.199 220.578 585.866 218.935 599.746C216.198 618.296 205.532 625.796 186.935 622.246C167.72 619.86 149.386 614.526 131.935 606.246C124.678 601.811 121.012 595.311 120.935 586.746C123.268 570.097 127.602 554.097 133.935 538.746L134.283 537.57C136.05 531.707 138.267 526.099 140.935 520.746C162.898 467.381 197.988 421.588 244.935 387.746C272.949 367.552 315.317 362.594 348.935 361.746C360.057 362.083 395.357 360.195 368.935 363.246Z" fill="url(#paint0_linear_1_2)"/>
<path fill-rule="evenodd" clip-rule="evenodd" d="M381.935 307.746C384.638 309.427 387.305 311.093 389.935 312.746C400.29 319.591 410.291 326.924 419.935 334.746C424.576 339.051 429.243 343.385 433.935 347.746C438.963 353.106 443.964 358.439 448.935 363.746C450.935 366.079 452.936 368.413 454.935 370.746C351 353.5 259.202 361.894 177.935 432.246C169.689 437.143 161.688 436.81 153.935 431.246C137.667 412.217 124.833 391.05 115.435 367.746C114.458 362.512 115.126 357.512 117.435 352.746C126.09 342.423 136.257 333.923 147.935 327.246C210.99 291.383 314.223 268.543 381.935 307.746Z" fill="url(#paint1_linear_1_2)"/>
<path fill-rule="evenodd" clip-rule="evenodd" d="M268.435 179.746C279.605 162.121 304.84 170.67 320.59 175.572C347.955 184.231 372 199.25 396.935 212.746C451.145 242.086 490.575 305.758 501.435 364.746C507.866 386.674 515.099 409.601 506 427C445.251 366.22 393.245 298.642 304.935 276.746C292.357 274.389 279.69 272.555 266.935 271.246C259.272 269.581 254.105 265.081 251.435 257.746C251.726 230.583 257.392 204.583 268.435 179.746Z" fill="url(#paint2_linear_1_2)"/>
<g filter="url(#filter1_dd_1_2)">
<path d="M493.935 163.246C505.304 158.63 514.804 161.13 522.435 170.746C542.623 200.797 557.123 233.464 565.935 268.746C601.215 410 558.5 421.5 519.935 488.746C515.908 495.768 508.887 500.461 502.935 505.746C503.107 506.738 502.773 507.404 501.935 507.746C509.9 398.525 511 324 437.435 230.746C430.714 219.628 431.714 209.294 440.435 199.746C456.621 185.231 474.454 173.064 493.935 163.246Z" fill="url(#paint3_linear_1_2)"/>
</g>
<g opacity="0.92">
<path d="M617.435 279.329C621.936 279.329 663.206 281.596 685.435 288.002C750.115 313.585 570.436 527.865 558.435 542.056C546.435 556.246 529.935 565.746 513.435 576.746C496.936 587.746 447.718 582.379 436.935 569.746C509.095 503.454 569.669 434.5 591.935 326.246L593.435 320.651C595.421 313.246 599.935 295.246 604.435 287.491C608.936 279.737 612.935 279.329 617.435 279.329Z" fill="#7234F2"/>
<path d="M617.435 279.329C621.936 279.329 663.206 281.596 685.435 288.002C750.115 313.585 570.436 527.865 558.435 542.056C546.435 556.246 529.935 565.746 513.435 576.746C496.936 587.746 447.718 582.379 436.935 569.746C509.095 503.454 569.669 434.5 591.935 326.246L593.435 320.651C595.421 313.246 599.935 295.246 604.435 287.491C608.936 279.737 612.935 279.329 617.435 279.329Z" fill="url(#paint4_linear_1_2)" fill-opacity="0.72"/>
</g>
<path d="M674.935 429.246C683.366 426.334 691.032 427.5 697.935 432.746C703.935 438.079 709.602 443.746 714.935 449.746C725.186 459.993 744.348 478.546 740.435 494.746C738.672 504.146 727.685 513.377 719.935 517.746C677.935 541.424 643.435 553.746 603.935 566.746C570.435 577.772 544.243 576.746 513.435 576.746C573.935 529.246 624.365 478.914 674.935 429.246Z" fill="url(#paint5_linear_1_2)"/>
<path fill-rule="evenodd" clip-rule="evenodd" d="M355.935 561.746C408.079 564.246 462.435 570.246 514.373 576.246C559.681 576.246 602.965 571.901 647.74 564.246C674.787 559.622 679.247 580.642 682.837 602.246C686.576 624.746 695.435 642.746 682.837 652.246C628.688 679.746 512.982 661.194 460.223 641.246C454.465 639.672 449.118 637.339 444.179 634.246H442.173C440.384 633.853 438.714 633.187 437.16 632.246C436.367 631.345 435.365 630.678 434.151 630.246C425.208 624.669 416.517 618.669 408.079 612.246C405.071 609.579 402.063 606.913 399.054 604.246C394.08 600.62 389.4 596.62 385.016 592.246C376.632 583.553 368.275 574.886 359.946 566.246C358.61 564.579 357.272 563.413 355.935 561.746Z" fill="url(#paint6_linear_1_2)"/>
<path d="M304.421 497C325.368 525.311 345.816 547.661 359.781 564.052C392.812 602.821 433.915 631.267 479.975 652.957C499.476 661.474 519.425 668.925 539.824 675.308C550.644 680.465 554.8 688.909 552.292 700.639C549.41 712.128 545.919 723.386 541.818 734.413C539.082 743.175 535.258 751.453 530.348 759.247C524.75 766.92 517.269 770.065 507.905 768.684C471.675 755.569 437.726 736.93 407.16 713.552C337.85 660.785 299.504 585.141 304.421 497Z" fill="url(#paint7_linear_1_2)"/>
<path fill-rule="evenodd" clip-rule="evenodd" d="M310.5 419C295.838 522.852 307.831 611.274 367.935 699.746C375.26 709.785 375.26 719.785 367.935 729.746C355.752 740.919 342.584 750.752 328.435 759.246C321.381 763.44 314.047 767.107 306.435 770.246C294.452 771.335 285.618 766.502 279.935 755.746C266.403 732.351 255.903 707.684 248.435 681.746L247.354 677.656C236.15 634.762 231.19 590.566 233.435 546.246C236.003 495.563 276.662 452.838 310.5 419Z" fill="url(#paint8_linear_1_2)"/>
</g>
<defs>
<filter id="filter0_d_1_2" x="-4" y="0" width="1032" height="1032" filterUnits="userSpaceOnUse" color-interpolation-filters="sRGB">
<feFlood flood-opacity="0" result="BackgroundImageFix"/>
<feColorMatrix in="SourceAlpha" type="matrix" values="0 0 0 0 0 0 0 0 0 0 0 0 0 0 0 0 0 0 127 0" result="hardAlpha"/>
<feOffset dy="4"/>
<feGaussianBlur stdDeviation="2"/>
<feComposite in2="hardAlpha" operator="out"/>
<feColorMatrix type="matrix" values="0 0 0 0 0 0 0 0 0 0 0 0 0 0 0 0 0 0 0.25 0"/>
<feBlend mode="normal" in2="BackgroundImageFix" result="effect1_dropShadow_1_2"/>
<feBlend mode="normal" in="SourceGraphic" in2="effect1_dropShadow_1_2" result="shape"/>
</filter>
<filter id="filter1_dd_1_2" x="429.047" y="158" width="154.033" height="354.746" filterUnits="userSpaceOnUse" color-interpolation-filters="sRGB">
<feFlood flood-opacity="0" result="BackgroundImageFix"/>
<feColorMatrix in="SourceAlpha" type="matrix" values="0 0 0 0 0 0 0 0 0 0 0 0 0 0 0 0 0 0 127 0" result="hardAlpha"/>
<feMorphology radius="1" operator="dilate" in="SourceAlpha" result="effect1_dropShadow_1_2"/>
<feOffset dy="1"/>
<feGaussianBlur stdDeviation="1.5"/>
<feColorMatrix type="matrix" values="0 0 0 0 0 0 0 0 0 0 0 0 0 0 0 0 0 0 0.15 0"/>
<feBlend mode="normal" in2="BackgroundImageFix" result="effect1_dropShadow_1_2"/>
<feColorMatrix in="SourceAlpha" type="matrix" values="0 0 0 0 0 0 0 0 0 0 0 0 0 0 0 0 0 0 127 0" result="hardAlpha"/>
<feOffset dy="1"/>
<feGaussianBlur stdDeviation="1"/>
<feColorMatrix type="matrix" values="0 0 0 0 0 0 0 0 0 0 0 0 0 0 0 0 0 0 0.3 0"/>
<feBlend mode="normal" in2="effect1_dropShadow_1_2" result="effect2_dropShadow_1_2"/>
<feBlend mode="normal" in="SourceGraphic" in2="effect2_dropShadow_1_2" result="shape"/>
</filter>
<linearGradient id="paint0_linear_1_2" x1="346.935" y1="361.246" x2="158.435" y2="623.246" gradientUnits="userSpaceOnUse">
<stop stop-color="#00854A"/>
<stop offset="0.425125" stop-color="#00EB83"/>
</linearGradient>
<linearGradient id="paint1_linear_1_2" x1="115.435" y1="362.246" x2="455.435" y2="362.246" gradientUnits="userSpaceOnUse">
<stop offset="0.380182" stop-color="#00F6A5"/>
<stop offset="1" stop-color="#007046"/>
</linearGradient>
<linearGradient id="paint2_linear_1_2" x1="273.935" y1="188.246" x2="505.435" y2="405.246" gradientUnits="userSpaceOnUse">
<stop offset="0.314587" stop-color="#00F2A6"/>
<stop offset="1" stop-color="#028553"/>
</linearGradient>
<linearGradient id="paint3_linear_1_2" x1="506.064" y1="161" x2="506.064" y2="507.746" gradientUnits="userSpaceOnUse">
<stop offset="0.424053" stop-color="white"/>
<stop offset="0.939142" stop-color="#8A6DDA"/>
</linearGradient>
<linearGradient id="paint4_linear_1_2" x1="482.935" y1="563.993" x2="672.462" y2="322.806" gradientUnits="userSpaceOnUse">
<stop stop-color="#4302C9"/>
<stop offset="1" stop-color="#AF50F9"/>
</linearGradient>
<linearGradient id="paint5_linear_1_2" x1="687.435" y1="427.246" x2="533.435" y2="577.246" gradientUnits="userSpaceOnUse">
<stop offset="0.00480769" stop-color="#A641F7"/>
<stop offset="1" stop-color="#3301AE"/>
</linearGradient>
<linearGradient id="paint6_linear_1_2" x1="370.935" y1="571.246" x2="684.574" y2="615.058" gradientUnits="userSpaceOnUse">
<stop stop-color="#002FC9"/>
<stop offset="0.401548" stop-color="#006AF3"/>
<stop offset="1" stop-color="#02A5F4"/>
</linearGradient>
<linearGradient id="paint7_linear_1_2" x1="302.861" y1="506.198" x2="551.664" y2="719.743" gradientUnits="userSpaceOnUse">
<stop stop-color="#032F54"/>
<stop offset="0.441015" stop-color="#00A6E0"/>
<stop offset="1" stop-color="#00C1F2"/>
</linearGradient>
<linearGradient id="paint8_linear_1_2" x1="303.197" y1="417.746" x2="303.197" y2="770.396" gradientUnits="userSpaceOnUse">
<stop stop-color="#006535"/>
<stop offset="0.379808" stop-color="#00D268"/>
<stop offset="1" stop-color="#00F29C"/>
</linearGradient>
</defs>
</svg>
