<svg width="4147" height="1218" viewBox="0 0 4147 1218" fill="none" xmlns="http://www.w3.org/2000/svg">
<g filter="url(#filter0_d_5_100)">
<path fill-rule="evenodd" clip-rule="evenodd" d="M784.935 399.246C718.576 456.512 670.684 511.993 642.935 594.746C639.244 608.199 636.578 621.866 634.935 635.746C632.198 654.296 621.532 661.796 602.935 658.246C583.72 655.86 565.386 650.526 547.935 642.246C540.678 637.811 537.012 631.311 536.935 622.746C539.268 606.097 543.602 590.097 549.935 574.746L550.283 573.57C552.05 567.707 554.267 562.099 556.935 556.746C578.898 503.381 613.988 457.588 660.935 423.746C688.949 403.552 731.317 398.594 764.935 397.746C776.057 398.083 811.357 396.195 784.935 399.246Z" fill="url(#paint0_linear_5_100)"/>
<path fill-rule="evenodd" clip-rule="evenodd" d="M797.935 343.746C800.638 345.427 803.305 347.093 805.935 348.746C816.29 355.591 826.291 362.924 835.935 370.746C840.576 375.051 845.243 379.385 849.935 383.746C854.963 389.106 859.964 394.439 864.935 399.746C866.935 402.079 868.936 404.413 870.935 406.746C767 389.5 675.202 397.894 593.935 468.246C585.689 473.143 577.688 472.81 569.935 467.246C553.667 448.217 540.833 427.05 531.435 403.746C530.458 398.512 531.126 393.512 533.435 388.746C542.09 378.423 552.257 369.923 563.935 363.246C626.99 327.383 730.223 304.543 797.935 343.746Z" fill="url(#paint1_linear_5_100)" fill-opacity="0.98"/>
<path fill-rule="evenodd" clip-rule="evenodd" d="M684.435 215.746C695.605 198.121 720.84 206.67 736.59 211.572C763.955 220.231 788 235.25 812.935 248.746C867.145 278.086 906.575 341.758 917.435 400.746C923.866 422.674 931.099 445.601 922 463C861.251 402.22 809.245 334.642 720.935 312.746C708.357 310.389 695.69 308.555 682.935 307.246C675.272 305.581 670.105 301.081 667.435 293.746C667.726 266.583 673.392 240.583 684.435 215.746Z" fill="url(#paint2_linear_5_100)"/>
<g filter="url(#filter1_dd_5_100)">
<path d="M909.935 199.246C921.304 194.63 930.804 197.13 938.435 206.746C958.623 236.797 973.123 269.464 981.935 304.746C1017.21 446 974.5 457.5 935.935 524.746C931.908 531.768 924.887 536.461 918.935 541.746C919.107 542.738 918.773 543.404 917.935 543.746C925.9 434.525 927 360 853.435 266.746C846.714 255.628 847.714 245.294 856.435 235.746C872.621 221.231 890.454 209.064 909.935 199.246Z" fill="url(#paint3_linear_5_100)"/>
</g>
<g opacity="0.92">
<path d="M1033.44 315.329C1037.94 315.329 1079.21 317.596 1101.44 324.002C1166.11 349.585 986.436 563.865 974.435 578.056C962.435 592.246 945.935 601.746 929.435 612.746C912.936 623.746 863.718 618.379 852.935 605.746C925.095 539.454 985.669 470.5 1007.94 362.246L1009.44 356.651C1011.42 349.246 1015.94 331.246 1020.44 323.491C1024.94 315.737 1028.94 315.329 1033.44 315.329Z" fill="#7234F2"/>
<path d="M1033.44 315.329C1037.94 315.329 1079.21 317.596 1101.44 324.002C1166.11 349.585 986.436 563.865 974.435 578.056C962.435 592.246 945.935 601.746 929.435 612.746C912.936 623.746 863.718 618.379 852.935 605.746C925.095 539.454 985.669 470.5 1007.94 362.246L1009.44 356.651C1011.42 349.246 1015.94 331.246 1020.44 323.491C1024.94 315.737 1028.94 315.329 1033.44 315.329Z" fill="url(#paint4_linear_5_100)" fill-opacity="0.72"/>
</g>
<path d="M1090.94 465.246C1099.37 462.334 1107.03 463.5 1113.94 468.746C1119.94 474.079 1125.6 479.746 1130.94 485.746C1141.19 495.993 1160.35 514.546 1156.44 530.746C1154.67 540.146 1143.69 549.377 1135.94 553.746C1093.94 577.424 1059.44 589.746 1019.94 602.746C986.435 613.772 960.243 612.746 929.435 612.746C989.935 565.246 1040.36 514.914 1090.94 465.246Z" fill="url(#paint5_linear_5_100)"/>
<path fill-rule="evenodd" clip-rule="evenodd" d="M771.935 597.746C824.079 600.246 878.435 606.246 930.373 612.246C975.681 612.246 1018.97 607.901 1063.74 600.246C1090.79 595.622 1095.25 616.642 1098.84 638.246C1102.58 660.746 1111.44 678.746 1098.84 688.246C1044.69 715.746 928.982 697.194 876.223 677.246C870.465 675.672 865.118 673.339 860.179 670.246H858.173C856.384 669.853 854.714 669.187 853.16 668.246C852.367 667.345 851.365 666.678 850.151 666.246C841.208 660.669 832.517 654.669 824.079 648.246C821.071 645.579 818.063 642.913 815.054 640.246C810.08 636.62 805.4 632.62 801.016 628.246C792.632 619.553 784.275 610.886 775.946 602.246C774.61 600.579 773.272 599.413 771.935 597.746Z" fill="url(#paint6_linear_5_100)"/>
<path d="M720.421 533C741.368 561.311 761.816 583.661 775.781 600.052C808.812 638.821 849.915 667.267 895.975 688.957C915.476 697.474 935.425 704.925 955.824 711.308C966.644 716.465 970.8 724.909 968.292 736.639C965.41 748.128 961.919 759.386 957.818 770.413C955.082 779.175 951.258 787.453 946.348 795.247C940.75 802.92 933.269 806.065 923.905 804.684C887.675 791.569 853.726 772.93 823.16 749.552C753.85 696.785 715.504 621.141 720.421 533Z" fill="url(#paint7_linear_5_100)"/>
<path fill-rule="evenodd" clip-rule="evenodd" d="M726.5 455C711.838 558.852 723.831 647.274 783.935 735.746C791.26 745.785 791.26 755.785 783.935 765.746C771.752 776.919 758.584 786.752 744.435 795.246C737.381 799.44 730.047 803.107 722.435 806.246C710.452 807.335 701.618 802.502 695.935 791.746C682.403 768.351 671.903 743.684 664.435 717.746L663.354 713.656C652.15 670.762 647.19 626.566 649.435 582.246C652.003 531.563 692.662 488.838 726.5 455Z" fill="url(#paint8_linear_5_100)"/>
</g>
<path d="M111.36 801V202.44C157.76 197.491 206.635 195.016 257.984 195.016C309.952 195.016 353.877 208.936 389.76 236.776C425.643 263.997 443.584 305.448 443.584 361.128C443.584 416.808 419.147 462.589 370.272 498.472C321.397 533.736 263.552 551.368 196.736 551.368C193.643 551.368 190.24 551.368 186.528 551.368V521.672C189.003 521.672 191.168 521.672 193.024 521.672C248.085 521.672 296.032 507.133 336.864 478.056C377.696 448.979 398.112 411.24 398.112 364.84C398.112 318.44 383.573 284.723 354.496 263.688C326.037 242.653 288.299 232.136 241.28 232.136C216.533 232.136 187.456 233.373 154.048 235.848V801H111.36ZM1270.45 801V198.728H1313.14V762.024H1589.69V801H1270.45ZM1746.02 592.2L1659.72 801H1616.1L1868.52 195.016H1893.58L2147.85 801H2100.52L2013.29 592.2H1746.02ZM1878.73 263.688C1869.45 291.528 1861.1 314.728 1853.67 333.288L1760.87 556.008H1998.44L1906.57 334.216C1892.34 299.571 1883.06 276.061 1878.73 263.688ZM2270.05 801V201.512C2323.25 197.181 2368.42 195.016 2405.54 195.016C2462.45 195.016 2509.47 209.864 2546.59 239.56C2583.71 268.637 2602.27 310.397 2602.27 364.84C2602.27 401.341 2591.75 435.059 2570.72 465.992C2549.68 496.925 2525.87 521.981 2499.26 541.16C2572.88 638.909 2618.36 697.373 2635.68 716.552C2670.94 753.053 2709.3 773.779 2750.75 778.728L2749.82 807.496C2715.18 806.877 2687.03 801.928 2665.38 792.648C2643.72 782.749 2622.07 766.355 2600.42 743.464C2579.38 720.573 2532.67 659.016 2460.29 558.792C2410.18 558.792 2360.99 557.245 2312.74 554.152V801H2270.05ZM2437.09 523.528C2461.22 523.528 2487.2 507.443 2515.04 475.272C2542.88 443.101 2556.8 405.672 2556.8 362.984C2556.8 320.296 2542.26 287.816 2513.18 265.544C2484.11 243.272 2446.37 232.136 2399.97 232.136C2375.22 232.136 2346.14 233.373 2312.74 235.848V518.888C2357.28 521.981 2398.73 523.528 2437.09 523.528ZM2834.64 801V198.728H2877.33V801H2834.64ZM3221.74 224.712C3188.33 224.712 3161.11 232.755 3140.08 248.84C3119.04 264.925 3108.52 287.507 3108.52 316.584C3108.52 349.992 3122.44 379.997 3150.28 406.6C3170.08 425.779 3195.45 446.195 3226.38 467.848C3257.93 488.883 3279.59 504.04 3291.34 513.32C3303.1 522.6 3317.32 535.283 3334.03 551.368C3364.34 581.683 3379.5 616.637 3379.5 656.232C3379.5 707.581 3362.18 746.557 3327.53 773.16C3293.51 799.144 3245.56 812.136 3183.69 812.136C3122.44 812.136 3071.1 796.051 3029.64 763.88L3051.92 731.4C3093.99 759.859 3138.53 774.088 3185.55 774.088C3232.57 774.088 3269.07 764.189 3295.05 744.392C3321.66 724.595 3334.96 696.755 3334.96 660.872C3334.96 629.939 3321.66 601.48 3295.05 575.496C3276.49 556.936 3251.44 536.829 3219.88 515.176C3188.95 493.523 3167.3 478.056 3154.92 468.776C3142.55 458.877 3128.01 445.885 3111.31 429.8C3079.76 398.248 3063.98 361.747 3063.98 320.296C3063.98 278.845 3078.52 246.365 3107.6 222.856C3137.29 199.347 3178.12 187.592 3230.09 187.592C3282.06 187.592 3328.77 197.8 3370.22 218.216L3354.44 252.552C3316.09 233.992 3271.85 224.712 3221.74 224.712Z" fill="black" fill-opacity="0.96"/>
<defs>
<filter id="filter0_d_5_100" x="412" y="36" width="1032" height="1032" filterUnits="userSpaceOnUse" color-interpolation-filters="sRGB">
<feFlood flood-opacity="0" result="BackgroundImageFix"/>
<feColorMatrix in="SourceAlpha" type="matrix" values="0 0 0 0 0 0 0 0 0 0 0 0 0 0 0 0 0 0 127 0" result="hardAlpha"/>
<feOffset dy="4"/>
<feGaussianBlur stdDeviation="2"/>
<feComposite in2="hardAlpha" operator="out"/>
<feColorMatrix type="matrix" values="0 0 0 0 0 0 0 0 0 0 0 0 0 0 0 0 0 0 0.25 0"/>
<feBlend mode="normal" in2="BackgroundImageFix" result="effect1_dropShadow_5_100"/>
<feBlend mode="normal" in="SourceGraphic" in2="effect1_dropShadow_5_100" result="shape"/>
</filter>
<filter id="filter1_dd_5_100" x="845.047" y="194" width="154.033" height="354.746" filterUnits="userSpaceOnUse" color-interpolation-filters="sRGB">
<feFlood flood-opacity="0" result="BackgroundImageFix"/>
<feColorMatrix in="SourceAlpha" type="matrix" values="0 0 0 0 0 0 0 0 0 0 0 0 0 0 0 0 0 0 127 0" result="hardAlpha"/>
<feMorphology radius="1" operator="dilate" in="SourceAlpha" result="effect1_dropShadow_5_100"/>
<feOffset dy="1"/>
<feGaussianBlur stdDeviation="1.5"/>
<feColorMatrix type="matrix" values="0 0 0 0 0 0 0 0 0 0 0 0 0 0 0 0 0 0 0.15 0"/>
<feBlend mode="normal" in2="BackgroundImageFix" result="effect1_dropShadow_5_100"/>
<feColorMatrix in="SourceAlpha" type="matrix" values="0 0 0 0 0 0 0 0 0 0 0 0 0 0 0 0 0 0 127 0" result="hardAlpha"/>
<feOffset dy="1"/>
<feGaussianBlur stdDeviation="1"/>
<feColorMatrix type="matrix" values="0 0 0 0 0 0 0 0 0 0 0 0 0 0 0 0 0 0 0.3 0"/>
<feBlend mode="normal" in2="effect1_dropShadow_5_100" result="effect2_dropShadow_5_100"/>
<feBlend mode="normal" in="SourceGraphic" in2="effect2_dropShadow_5_100" result="shape"/>
</filter>
<linearGradient id="paint0_linear_5_100" x1="762.935" y1="397.246" x2="574.435" y2="659.246" gradientUnits="userSpaceOnUse">
<stop stop-color="#00854A"/>
<stop offset="0.425125" stop-color="#00EB83"/>
</linearGradient>
<linearGradient id="paint1_linear_5_100" x1="531.435" y1="398.246" x2="871.435" y2="398.246" gradientUnits="userSpaceOnUse">
<stop offset="0.380182" stop-color="#00F6A5"/>
<stop offset="1" stop-color="#007046"/>
</linearGradient>
<linearGradient id="paint2_linear_5_100" x1="689.935" y1="224.246" x2="921.435" y2="441.246" gradientUnits="userSpaceOnUse">
<stop offset="0.314587" stop-color="#00F2A6"/>
<stop offset="1" stop-color="#028553"/>
</linearGradient>
<linearGradient id="paint3_linear_5_100" x1="922.064" y1="197" x2="922.064" y2="543.746" gradientUnits="userSpaceOnUse">
<stop offset="0.424053" stop-color="white"/>
<stop offset="0.939142" stop-color="#8A6DDA"/>
</linearGradient>
<linearGradient id="paint4_linear_5_100" x1="898.935" y1="599.993" x2="1088.46" y2="358.806" gradientUnits="userSpaceOnUse">
<stop stop-color="#4302C9"/>
<stop offset="1" stop-color="#AF50F9"/>
</linearGradient>
<linearGradient id="paint5_linear_5_100" x1="1103.44" y1="463.246" x2="949.435" y2="613.246" gradientUnits="userSpaceOnUse">
<stop offset="0.00480769" stop-color="#A641F7"/>
<stop offset="1" stop-color="#3301AE"/>
</linearGradient>
<linearGradient id="paint6_linear_5_100" x1="786.935" y1="607.246" x2="1100.57" y2="651.058" gradientUnits="userSpaceOnUse">
<stop stop-color="#002FC9"/>
<stop offset="0.401548" stop-color="#006AF3"/>
<stop offset="1" stop-color="#02A5F4"/>
</linearGradient>
<linearGradient id="paint7_linear_5_100" x1="718.861" y1="542.198" x2="967.664" y2="755.743" gradientUnits="userSpaceOnUse">
<stop stop-color="#032F54"/>
<stop offset="0.441015" stop-color="#00A6E0"/>
<stop offset="1" stop-color="#00C1F2"/>
</linearGradient>
<linearGradient id="paint8_linear_5_100" x1="719.197" y1="453.746" x2="719.197" y2="806.396" gradientUnits="userSpaceOnUse">
<stop stop-color="#006535"/>
<stop offset="0.379808" stop-color="#00D268"/>
<stop offset="1" stop-color="#00F29C"/>
</linearGradient>
</defs>
</svg>
